<svg width="216" height="135" viewBox="0 0 216 135" fill="none" xmlns="http://www.w3.org/2000/svg">
<g clip-path="url(#clip0_10214_41182)">
<path d="M115.74 94.5313C115.74 94.5313 115.491 91.9315 115.024 89.5006L111.833 90.3224L112.787 93.2794L104.087 98.0797L109.661 91.2479L109.044 88.5598L114.162 86.3017C112.319 81.8086 108.416 80.4184 100.309 99.0244C97.984 104.359 92.9348 105.787 86.4069 107.369C85.3304 107.627 95.3253 108.721 101.853 102.892C105.934 99.2718 110.649 96.4423 115.76 94.5467" fill="white"/>
<path d="M90.6784 88.491C90.6248 86.0793 89.7513 82.9917 87.8052 81.5785C87.3498 81.3291 86.8774 81.1122 86.3916 80.9295C86.0679 80.8504 85.7363 80.8092 85.4032 80.8066C80.1088 80.8412 75.8028 81.2675 71.6118 80.2383C69.8534 79.9887 67.3709 79.0593 66.1297 79.8543C65.3367 80.3727 64.3598 81.1446 64.0265 83.6215C63.8618 84.8543 63.9921 86.0908 64.2717 86.3596C65.0877 86.2175 65.8041 82.3389 67.279 82.2467C69.1945 82.1315 65.1911 86.206 70.9605 88.0071C73.4506 88.7752 69.6235 94.0747 67.7081 94.1937C66.237 94.2821 64.6433 92.8689 64.2372 90.9218H64.2104C62.9845 91.4288 64.356 94.0555 65.0877 98.7751C65.7236 102.873 71.5773 100.695 74.9754 100.734C78.3734 100.772 84.1351 103.449 87.3838 102.009C90.6324 100.569 90.7665 91.7091 90.6937 88.4602M83.0318 94.5202C81.4152 94.332 78.7757 91.2521 78.8676 89.5624C78.856 89.4501 78.856 89.3368 78.8676 89.2245C78.8403 89.0724 78.8438 88.9163 78.8779 88.7656C78.912 88.6149 78.976 88.4726 79.066 88.3472C79.1561 88.2218 79.2704 88.1159 79.4022 88.0357C79.5339 87.9555 79.6805 87.9026 79.833 87.8804C82.7522 87.2774 83.5145 86.0831 83.6639 84.9695C83.6126 84.5787 83.5909 84.1846 83.5988 83.7905C83.5911 83.7036 83.5911 83.6162 83.5988 83.5294C83.5889 83.4234 83.5889 83.3166 83.5988 83.2106C83.5758 82.7229 83.6678 82.4426 84.2654 82.5002C86.2 82.7344 87.5485 85.1308 87.4949 88.0148C87.4949 88.0801 87.4949 88.153 87.4949 88.2222C87.4945 88.2285 87.4945 88.235 87.4949 88.2414C87.5076 88.626 87.4922 89.011 87.4489 89.3934C87.1118 92.4656 85.1235 94.7698 83.0127 94.5125" fill="white"/>
<path d="M87.5062 88.2717C87.5062 88.2025 87.5062 88.1257 87.5062 88.0604C87.556 85.1764 86.2075 82.7801 84.2729 82.5497C83.6753 82.4767 83.5833 82.7686 83.6063 83.2563C83.5964 83.3623 83.5964 83.469 83.6063 83.575C83.5986 83.6619 83.5986 83.7493 83.6063 83.8362C83.5984 84.2302 83.6201 84.6244 83.6714 85.0151C83.5182 86.1288 82.7597 87.3193 79.8405 87.926C79.688 87.9483 79.5414 88.0011 79.4097 88.0813C79.2779 88.1616 79.1636 88.2675 79.0735 88.3929C78.9835 88.5183 78.9195 88.6606 78.8854 88.8113C78.8513 88.962 78.8478 89.118 78.8751 89.2701C78.8635 89.3825 78.8635 89.4957 78.8751 89.6081C78.7832 91.2978 81.4227 94.3777 83.0393 94.5658C85.1502 94.8116 87.1384 92.519 87.4756 89.4468C87.5189 89.0644 87.5342 88.6793 87.5215 88.2947" fill="#00467F"/>
<path d="M107.588 55.1037C107.588 55.1037 109.013 59.7772 107.274 61.8702C105.699 63.7596 102.416 62.2811 102.416 62.2811L97.708 68.7711C97.708 68.7711 107.052 70.0115 110.35 64.7504C112.358 61.5591 111.001 57.9915 110.802 53.9362C111.108 52.0902 111.854 50.3458 112.978 48.8517L111.994 46.6743L108.753 52.8609L107.588 55.1037Z" fill="white"/>
<path d="M73.1481 57.0929C71.3744 60.4723 75.6995 63.1221 75.6995 63.1221C75.6995 63.1221 73.1213 69.3625 72.064 73.172C73.7113 73.9401 76.1286 75.1766 78.2356 75.1766C80.1741 75.1766 84.1238 74.6467 87.4107 74.1513L89.6556 66.5207C86.8706 66.4247 85.6638 63.8863 85.6638 63.8863C87.6122 63.6331 89.5064 63.0637 91.2723 62.2004C97.6049 58.8902 109.029 36.0868 108.822 30.2304C108.73 27.7995 96.6356 28.8364 92.8277 29.2819C85.2003 30.169 84.0855 30.4339 80.8751 31.202C77.7797 31.9431 78.0785 40.9332 77.4273 43.6866C76.776 46.4401 74.918 53.7097 73.1405 57.0891" fill="#0093D0"/>
<path d="M157.793 67.6497C156.954 68.6136 155.406 69.8501 152.556 70.9676C146.043 73.5137 134.439 73.6366 134.324 73.6366L130.302 73.6712L134.052 75.1228C134.838 75.4262 140.768 77.6343 147.212 77.6343C148.658 77.6361 150.102 77.5076 151.525 77.2503C152.619 77.032 153.694 76.7316 154.743 76.3517C164.658 72.8955 164.769 65.2726 164.769 64.95V64.4085L151.257 59.5967L157.793 67.6497Z" fill="#FFD200"/>
<path d="M138.994 83.8481C138.994 83.8481 144.323 92.8497 138.42 101.763L135.374 96.9818C135.374 96.9818 133.237 104.793 116.143 108.648C99.9227 112.304 90.4487 112.212 90.4487 112.212C90.4487 112.212 116.978 116.321 130.268 111.563C138.531 108.606 138.611 104.466 138.611 104.466L143.086 109.294C143.086 109.294 148.135 102.654 145.469 94.3896C142.802 86.1254 138.994 83.8481 138.994 83.8481Z" fill="#FFD200"/>
<path d="M174.549 62.692L180.453 56.6437C180.453 56.6437 179.418 55.4071 174.323 52.2965C170.741 50.0999 162.505 46.9624 162.505 46.9624L174.549 62.692Z" fill="#0093D0"/>
<path d="M70.5623 50.1422C70.5623 50.1422 71.3476 49.5047 72.041 46.3019C72.52 43.9868 72.7512 41.6271 72.7306 39.2627C72.7306 39.4663 72.7037 39.6468 72.6999 39.8618C72.6999 39.8618 57.0927 38.6329 51.4727 32.815C46.163 27.3157 41.7766 20.4455 32.7011 13.1529C25.3763 7.25814 12.6997 10.0807 12.6997 10.0807C12.6997 10.0807 26.062 10.8104 31.3755 16.0561C39.658 24.2282 46.1362 39.5162 51.8251 44.6237C57.2191 49.4663 70.5508 50.1422 70.5508 50.1422" fill="white"/>
<path d="M32.7125 13.1414C41.7765 20.4378 46.1629 27.3042 51.4841 32.8034C57.1041 38.6214 72.7114 39.8503 72.7114 39.8503C72.7114 39.6544 72.7114 39.4662 72.742 39.2512C72.9834 35.8871 74.6268 32.0162 74.6268 32.0162C74.6268 32.0162 63.4405 31.7089 57.1616 27.1928C51.4152 23.0645 42.5082 9.43551 30.9158 6.69358C22.7789 4.77346 12.7227 10.0807 12.7227 10.0807C12.7227 10.0807 25.3992 7.24657 32.724 13.1529" fill="#0093D0"/>
<path d="M209.181 12.8688C209.181 12.8688 194.344 3.5063 183.855 3.18371C175.101 2.9149 161.869 5.34577 149.434 17.0662C143.53 22.6307 136.542 24.7889 130.585 25.4648C120.625 22.4464 108.791 20.6837 98.5203 21.9548C84.8707 23.6445 64.3139 29.1284 53.4455 16.5401C43.328 4.81582 32.5554 2.38878 25.4298 2.6768C16.8945 2.99938 4.81934 12.3619 4.81934 12.3619C4.81934 12.3619 20.7599 9.9387 28.6478 20.5915C37.2521 32.2083 39.9223 44.3204 47.8025 50.4533C53.2846 54.716 62.4137 57.4157 67.4782 58.6676C67.4782 58.8558 67.4782 59.0516 67.5012 59.2206C67.6736 61.0869 69.2405 62.2467 70.2633 62.815C69.7653 64.7621 68.2865 70.3381 68.095 71.567C68.0452 71.9088 67.7694 72.9341 67.7119 73.2912C62.6819 73.5985 59.6669 75.5954 58.8433 79.5508C58.3857 81.5973 58.4502 83.7265 59.031 85.7413C58.3491 87.0585 57.6059 87.8496 57.6442 91.3941C57.6442 92.4963 57.9047 93.8903 58.0043 95.2344C58.0886 97.0497 58.2934 98.8573 58.6173 100.645C58.727 101.167 58.8729 101.68 59.054 102.181C59.1648 102.47 59.2927 102.753 59.4371 103.026C59.5968 103.345 59.7773 103.653 59.9772 103.948C60.2678 104.376 60.5988 104.774 60.9656 105.138L61.0231 105.196L61.184 105.357C61.3449 105.507 61.5211 105.657 61.705 105.803C62.0963 106.107 62.5114 106.379 62.9462 106.617C63.4378 106.88 63.9503 107.103 64.4786 107.281C65.0345 107.468 65.6029 107.614 66.1795 107.719C66.217 107.73 66.2555 107.738 66.2945 107.742C66.8795 107.837 67.4718 107.879 68.0644 107.869C68.0912 107.896 68.3823 109.877 70.5813 112.308C74.2092 116.321 83.7023 111.901 102.24 117.642C123.797 124.317 126.548 131.851 126.548 131.851C126.548 131.851 149.594 128.264 153.582 107.347C159.011 78.8711 188.103 54.9502 188.103 54.9502C188.103 54.9502 181.112 46.3788 165.849 40.9103C169.967 34.9349 173.488 28.1607 179.924 21.0908C189.616 10.4341 209.204 12.8573 209.204 12.8573M112.994 48.8481C111.867 50.343 111.118 52.0887 110.81 53.9364C111.009 57.9917 112.365 61.5593 110.358 64.7505C107.048 70.0117 97.7158 68.7713 97.7158 68.7713L102.424 62.2813C102.424 62.2813 105.707 63.7597 107.278 61.8703C109.021 59.7774 107.596 55.1038 107.596 55.1038L108.776 52.8611L112.017 46.6745L112.994 48.8481ZM80.8827 31.206C84.093 30.4379 85.2078 30.1691 92.8352 29.2859C96.6432 28.8442 108.737 27.8074 108.829 30.2421C109.036 36.0869 97.6124 58.8903 91.2722 62.2006C89.5039 63.0647 87.607 63.6341 85.656 63.8865C85.656 63.8865 86.8628 66.4249 89.6479 66.5209L87.4029 74.1514C84.116 74.6468 80.1663 75.1768 78.2278 75.1768C76.1208 75.1768 73.7035 73.9287 72.0562 73.1722C73.1135 69.3627 75.6918 63.1223 75.6918 63.1223C75.6918 63.1223 71.3666 60.4725 73.1404 57.0931C74.9141 53.7137 76.7721 46.4863 77.431 43.6906C78.0899 40.8949 77.7796 31.9472 80.8789 31.206M31.3869 16.0562C26.0734 10.8104 12.7111 10.0846 12.7111 10.0846C12.7111 10.0846 22.7673 4.7659 30.9042 6.6937C42.4966 9.43563 51.4151 23.0647 57.15 27.1929C63.4289 31.7091 74.6153 32.0163 74.6153 32.0163C74.6153 32.0163 72.9718 35.8872 72.7304 39.2513C72.7511 41.6156 72.5199 43.9754 72.0409 46.2905C71.3475 49.5048 70.5621 50.1307 70.5621 50.1307C70.5621 50.1307 57.2305 49.4548 51.8365 44.6123C46.1475 39.5048 39.6694 24.2167 31.3869 16.0447M74.9601 100.764C71.562 100.737 65.7083 102.903 65.0724 98.8058C64.3407 94.0823 62.9692 91.4594 64.1951 90.9525H64.2219C64.605 92.8995 66.2217 94.3127 67.6928 94.2244C69.6082 94.1054 73.4392 88.8173 70.9452 88.0378C65.1758 86.2367 69.1792 82.1622 67.2637 82.2774C65.7735 82.3696 65.0724 86.2482 64.2564 86.3903C63.9767 86.1215 63.8465 84.8849 64.0112 83.6522C64.3445 81.1753 65.3214 80.3995 66.1144 79.8849C67.3556 79.0708 69.8381 80.0001 71.5965 80.269C75.8105 81.2981 80.1127 80.8719 85.3879 80.8373C85.721 80.8399 86.0526 80.8811 86.3763 80.9602C86.8612 81.1422 87.3324 81.3591 87.786 81.6092C89.736 83.0224 90.6094 86.1061 90.6631 88.5217C90.7359 91.7667 90.6018 100.634 87.3531 102.07C84.1045 103.506 78.3428 100.826 74.9447 100.795M86.3724 107.385C92.885 105.803 97.9495 104.374 100.275 99.0401C108.393 80.4341 112.285 81.8243 114.128 86.3173L109.009 88.5754L109.626 91.2636L104.071 98.0954L112.771 93.2951L111.818 90.3381L115.009 89.5163C115.476 91.9472 115.725 94.547 115.725 94.547C110.614 96.442 105.899 99.2716 101.819 102.892C95.3062 108.721 85.2959 107.627 86.3724 107.37M143.07 109.309L138.596 104.482C138.596 104.482 138.515 108.621 130.252 111.578C116.963 116.337 90.4332 112.227 90.4332 112.227C90.4332 112.227 99.9072 112.32 116.127 108.664C133.225 104.823 135.359 96.9971 135.359 96.9971L138.42 101.755C144.323 92.8419 138.994 83.8404 138.994 83.8404C138.994 83.8404 142.802 86.1177 145.465 94.3819C148.127 102.646 143.086 109.286 143.086 109.286M164.769 64.9541C164.769 65.2766 164.658 72.9072 154.743 76.3557C153.695 76.7357 152.619 77.0361 151.525 77.2544C150.102 77.5117 148.658 77.6402 147.212 77.6384C140.768 77.6384 134.838 75.4303 134.052 75.1269L130.302 73.6714L134.324 73.6407C134.439 73.6407 146.043 73.5178 152.556 70.9717C155.406 69.8542 156.958 68.6177 157.793 67.6538L151.257 59.6123L164.769 64.4241V64.9541ZM180.453 56.6361L174.549 62.6845L162.528 46.9664C162.528 46.9664 170.764 50.1 174.346 52.2966C179.422 55.4072 180.476 56.6438 180.476 56.6438M151.418 45.1499C146.196 48.9671 134.926 50.196 130.378 50.5455C128.624 49.1284 126.448 46.4018 126.107 41.4057C126.084 41.0869 126.08 40.7912 126.076 40.4917C125.996 35.7682 127.908 33.1607 128.904 32.1315C133.596 31.6015 140.308 30.4034 144.89 27.719C151.935 23.5946 162.896 9.96175 177.139 7.21981C187.134 5.29969 199.492 10.6108 199.492 10.6108C199.492 10.6108 183.073 11.3366 176.545 16.5823C166.359 24.7544 158.402 40.0462 151.418 45.1499Z" fill="#00467F"/>
<path d="M174.906 13.6676C163.773 20.964 158.586 27.7766 152.077 33.295C145.051 39.2551 128.812 40.3457 126.069 40.4917C126.069 40.7912 126.069 41.0869 126.1 41.4056C126.44 46.398 128.616 49.1284 130.371 50.5454C134.918 50.196 146.189 48.9671 151.411 45.1499C158.398 40.0424 166.351 24.7543 176.538 16.5823C183.05 11.3365 199.485 10.6107 199.485 10.6107C199.485 10.6107 183.908 7.76894 174.906 13.6829" fill="white"/>
<path d="M152.077 33.2948C158.59 27.7764 163.773 20.9599 174.905 13.6673C183.908 7.76869 199.485 10.5951 199.485 10.5951C199.485 10.5951 187.126 5.27636 177.131 7.20417C162.888 9.9461 151.928 23.579 144.882 27.7034C140.285 30.3916 133.589 31.5859 128.896 32.1158C127.9 33.145 125.992 35.7564 126.069 40.4761C128.812 40.3301 145.051 39.2395 152.077 33.2794" fill="#0093D0"/>
<path d="M26.4641 2.63805C33.5705 2.63805 43.803 5.36846 53.4455 16.5397C58.8701 22.8185 66.6967 24.6043 74.8987 24.6043C83.1008 24.6043 91.6974 22.8032 98.5395 21.9583C100.898 21.6751 103.271 21.5366 105.646 21.5436C114.028 21.5436 122.885 23.1258 130.604 25.4683C136.562 24.7924 143.549 22.6342 149.453 17.0697C161.298 5.89842 173.871 3.168 182.606 3.168C183.039 3.168 183.464 3.168 183.874 3.168C194.359 3.49443 209.2 12.8531 209.2 12.8531C207.593 12.6835 205.978 12.604 204.362 12.615C197.922 12.615 186.582 13.7671 179.92 21.0866C173.484 28.1565 169.96 34.9307 165.845 40.9061C181.104 46.3746 188.099 54.946 188.099 54.946C188.099 54.946 159.007 78.8669 153.579 107.342C149.591 128.26 126.544 131.843 126.544 131.843C126.544 131.843 123.793 124.293 102.236 117.634C83.6984 111.874 74.2053 116.313 70.5774 112.3C68.3785 109.869 68.0912 107.888 68.0605 107.861H67.8307C67.3172 107.857 66.8049 107.814 66.2983 107.73C66.2593 107.726 66.2208 107.719 66.1833 107.707C65.6068 107.602 65.0384 107.455 64.4824 107.269C63.9542 107.091 63.4416 106.869 62.95 106.605C62.5152 106.367 62.1001 106.095 61.7088 105.791C61.5249 105.645 61.3525 105.495 61.1878 105.345L61.0269 105.184L60.9694 105.127C60.6026 104.762 60.2717 104.364 59.9811 103.936C59.7811 103.641 59.6007 103.333 59.4409 103.014C59.2965 102.741 59.1686 102.459 59.0578 102.17C58.8767 101.668 58.7308 101.155 58.6211 100.633C58.2972 98.8454 58.0924 97.0378 58.0081 95.2225C57.9085 93.8631 57.6633 92.4691 57.648 91.3823C57.6097 87.8377 58.3529 87.0466 59.0348 85.7294C58.4541 83.7146 58.3895 81.5855 58.8471 79.539C59.6554 75.5874 62.678 73.5866 67.7157 73.2794C67.7732 72.9222 68.049 71.8969 68.0988 71.5551C68.2865 70.3224 69.7653 64.7502 70.2633 62.8032C69.2404 62.2348 67.6736 61.0751 67.505 59.2087C67.505 59.0282 67.482 58.8439 67.4782 58.6557C62.4137 57.4038 53.3037 54.7041 47.8025 50.4414C39.9146 44.297 37.2444 32.1964 28.6478 20.5835C23.2232 13.2563 13.9944 12.1119 8.7537 12.1119C7.43709 12.1012 6.12128 12.1808 4.81549 12.35C4.81549 12.35 16.8945 2.97983 25.4298 2.67645C25.7669 2.67645 26.1117 2.67645 26.4641 2.67645M26.4641 0.0382034C26.0811 0.0382034 25.8359 0.0382054 25.3149 0.0612469C10.9029 1.37845 0 14.4506 0 14.4506C0 14.4506 19.1164 12.1465 26.5369 22.1311C30.0844 26.9238 32.563 31.7548 34.965 36.4284C38.183 42.7033 41.2248 48.6365 46.2012 52.5036C51.4879 56.6127 59.7742 59.3239 65.1643 60.7602C65.5727 61.9724 66.3008 63.0513 67.2713 63.8823C66.4668 66.9852 65.7849 69.6427 65.5589 70.8408C59.1076 71.8738 56.9355 75.7563 56.2765 78.986C55.8409 81.0895 55.8253 83.2588 56.2306 85.3685C55.5065 86.7471 54.9893 88.2294 55.0238 91.39C55.0509 92.2019 55.1186 93.0119 55.2269 93.817C55.2882 94.347 55.3533 94.8923 55.3878 95.4069C55.4798 97.3401 55.7038 99.2647 56.0582 101.167C56.1937 101.809 56.3729 102.44 56.5945 103.057C56.7348 103.437 56.8959 103.808 57.0772 104.17C57.288 104.593 57.5274 105.001 57.7936 105.392C58.1773 105.957 58.6148 106.485 59.0999 106.966L59.1306 107.001C59.2072 107.081 59.2915 107.166 59.3834 107.25C59.6056 107.458 59.8355 107.653 60.073 107.842C60.58 108.238 61.1196 108.592 61.6858 108.898C62.2998 109.231 62.9405 109.512 63.6013 109.739C64.2601 109.96 64.9334 110.136 65.6164 110.265L65.8156 110.303C65.8999 110.303 66.011 110.338 66.1374 110.353C66.7674 111.703 67.6008 112.948 68.6083 114.044C71.0448 116.732 74.6267 116.809 79.584 116.905C84.7404 117.004 91.8085 117.139 101.44 120.123C120.1 125.883 123.207 130.591 124.065 132.795C124.272 133.325 124.693 134.984 124.693 134.984C124.693 134.984 126.226 134.6 126.927 134.451C131.453 133.585 135.811 131.994 139.833 129.739C148.725 124.746 154.364 117.177 156.145 107.849C161.329 80.668 189.475 57.231 189.75 56.9967L191.781 55.3224L190.11 53.2909C189.827 52.9414 183.445 45.2609 169.833 39.6465C170.4 38.7709 170.983 37.88 171.546 36.9583C174.434 32.4192 177.419 27.7417 181.836 22.8723C187.862 16.2517 198.27 15.5106 204.335 15.2648C210.284 14.9115 215.992 14.9115 215.992 14.9115C215.992 14.9115 200.197 1.33621 183.931 0.537436C183.491 0.537436 183.039 0.537436 182.579 0.537436C175.3 0.537436 161.126 2.43452 147.622 15.1534C143.155 19.3777 137.496 21.9353 130.808 22.7917C122.379 20.2878 113.457 18.9092 105.619 18.9092C103.136 18.9043 100.656 19.0505 98.1909 19.347C96.2179 19.5927 94.1377 19.9076 91.9349 20.2417C86.6061 21.0559 80.5685 21.9737 74.8719 21.9737C65.8194 21.9737 59.6401 19.7003 55.4299 14.8231C44.3125 1.9084 32.5094 -0.0117188 26.4641 -0.0117188" fill="white"/>
</g>
<defs>
<clipPath id="clip0_10214_41182">
<rect width="216" height="135" fill="white"/>
</clipPath>
</defs>
</svg>
